<svg xmlns="http://www.w3.org/2000/svg" width="1330" height="593" viewBox="0 0 1330 593"><defs><style>.cls-1,.cls-4{fill:#ebebeb;}.cls-2{fill:#fdf8e6;}.cls-3{fill:#9bd0fe;}.cls-4,.cls-5{stroke:#d1d4d9;}.cls-4,.cls-5,.cls-6{stroke-miterlimit:10;}.cls-4,.cls-6{stroke-width:3px;}.cls-5{fill:#fff;stroke-width:2px;}.cls-6{fill:#fef1a0;stroke:#f3c959;}</style></defs><title>floorplan</title><g id="map"><g id="rooms"><rect class="cls-1" x="100.5" y="1.5" width="1092" height="321"/><rect class="cls-2" x="100.5" y="320.5" width="380" height="271"/><rect class="cls-1" x="711.5" y="320.5" width="383" height="271"/><rect class="cls-3" x="1087.5" y="451.5" width="95" height="140"/><rect class="cls-3" x="480.5" y="398.5" width="231" height="185"/><rect class="cls-1" x="480.5" y="320.5" width="231" height="78"/><rect class="cls-1" x="1094.5" y="320.5" width="88" height="131"/><rect class="cls-4" x="1.5" y="1.5" width="99" height="590"/><rect class="cls-4" x="1192.5" y="146.5" width="136" height="445"/></g><g id="house"><polygon class="cls-5" points="1182.5 310.5 1182.5 320.5 1182.5 340.5 1182.5 441.5 1097.5 441.5 1097.5 340.5 1097.5 320.5 1097.5 310.5 835.5 310.5 835.5 79.5 825.5 79.5 825.5 310.5 629.322 310.5 629.322 320.5 692.5 320.5 711.5 320.5 722 320.5 760.5 320.5 1087.5 320.5 1087.5 497.5 1097.5 497.5 1097.5 451.5 1182.5 451.5 1182.5 581.5 1097.5 581.5 1097.5 565.5 1087.5 565.5 1087.5 581.5 722 581.5 722 388.5 711.5 388.5 692.5 388.5 630.5 388.5 630.5 398.5 711.5 398.5 711.5 581.5 489.5 581.5 489.5 398.5 562.5 398.5 562.5 388.5 514.5 388.5 490.5 388.5 479.5 388.5 479.5 581.5 110.5 581.5 110.5 320.5 446.5 320.5 479.5 320.5 490.5 320.5 514.5 320.5 561.322 320.5 561.322 310.5 489.5 310.5 489.5 211.5 479.5 211.5 479.5 310.5 110.5 310.5 110.5 196.5 100.5 196.5 100.5 591.5 1192.5 591.5 1192.5 275.5 1182.5 275.5 1182.5 310.5"/><polygon class="cls-5" points="100.5 1.5 100.5 128.5 110.5 128.5 110.5 11.5 479.5 11.5 479.5 110.5 489.5 110.5 489.5 11.5 800.5 11.5 825.5 11.5 835.5 11.5 868.5 11.5 1182.5 11.5 1182.5 174.5 1192.5 174.5 1192.5 146.5 1192.5 146 1192.5 1.5 100.5 1.5"/></g><g id="paths"><polygon class="cls-6" points="1003.479 535.5 1003.979 409 908.736 409 808.731 354.997 600.5 354.512 600.5 472.5 590.5 472.5 590.5 354.505 481.263 354.615 289.153 458.058 284.413 449.253 478.737 344.617 590.5 344.505 590.5 166.5 279.5 166.5 103.732 166.991 44.526 298.09 35.413 293.974 97.268 157.009 279.486 156.5 594.79 156.5 738.19 37 907.524 37 1011.735 178.287 1156.172 195.22 1259.913 289.266 1253.197 296.674 1151.828 204.78 1006.264 187.713 902.476 47 741.811 47 600.5 164.759 600.5 344.512 811.269 345.003 911.264 399 1014.021 399 1013.521 525.5 1119.5 525.5 1119.5 535.5 1003.479 535.5"/></g></g></svg>