<svg xmlns="http://www.w3.org/2000/svg" width="1330" height="593" viewBox="0 0 1330 593"><defs><style>.cls-1,.cls-4{fill:#ebebeb;}.cls-2{fill:#fdf8e6;}.cls-3{fill:#9bd0fe;}.cls-4,.cls-5{stroke:#d1d4d9;}.cls-4,.cls-5,.cls-6{stroke-miterlimit:10;}.cls-4,.cls-6{stroke-width:3px;}.cls-5{fill:#fff;stroke-width:2px;}.cls-6{fill:#fef1a0;stroke:#f3c959;}.cls-7{fill:none;}</style></defs><title>houseMap</title><g id="rooms"><rect class="cls-1" x="100.5" y="1.5" width="1092" height="321"/><rect class="cls-2" x="100.5" y="320.5" width="380" height="271"/><rect class="cls-1" x="711.5" y="320.5" width="383" height="271"/><rect class="cls-3" x="1087.5" y="451.5" width="95" height="140"/><rect class="cls-3" x="480.5" y="398.5" width="231" height="185"/><rect class="cls-1" x="480.5" y="320.5" width="231" height="78"/><rect class="cls-1" x="1094.5" y="320.5" width="88" height="131"/><rect class="cls-4" x="1.5" y="1.5" width="99" height="590"/><rect class="cls-4" x="1192.5" y="146.5" width="136" height="445"/><path class="cls-1" d="M589.1181,211.4839" transform="translate(-23.5 -82.5)"/></g><g id="house"><polygon class="cls-5" points="1182.5 310.5 1182.5 320.5 1182.5 340.5 1182.5 441.5 1097.5 441.5 1097.5 340.5 1097.5 320.5 1097.5 310.5 835.5 310.5 835.5 79.5 825.5 79.5 825.5 310.5 629.322 310.5 629.322 320.5 692.5 320.5 711.5 320.5 722 320.5 760.5 320.5 1087.5 320.5 1087.5 497.5 1097.5 497.5 1097.5 451.5 1182.5 451.5 1182.5 581.5 1097.5 581.5 1097.5 565.5 1087.5 565.5 1087.5 581.5 722 581.5 722 388.5 711.5 388.5 692.5 388.5 630.5 388.5 630.5 398.5 711.5 398.5 711.5 581.5 489.5 581.5 489.5 398.5 562.5 398.5 562.5 388.5 514.5 388.5 490.5 388.5 479.5 388.5 479.5 581.5 110.5 581.5 110.5 320.5 446.5 320.5 479.5 320.5 490.5 320.5 514.5 320.5 561.322 320.5 561.322 310.5 489.5 310.5 489.5 211.5 479.5 211.5 479.5 310.5 110.5 310.5 110.5 196.5 100.5 196.5 100.5 591.5 1192.5 591.5 1192.5 275.5 1182.5 275.5 1182.5 310.5"/><polygon class="cls-5" points="100.5 1.5 100.5 128.5 110.5 128.5 110.5 11.5 479.5 11.5 479.5 110.5 489.5 110.5 489.5 11.5 800.5 11.5 825.5 11.5 835.5 11.5 868.5 11.5 1182.5 11.5 1182.5 174.5 1192.5 174.5 1192.5 146.5 1192.5 146 1192.5 1.5 100.5 1.5"/></g><g id="paths"><path class="cls-6" d="M127.5,221.5" transform="translate(-23.5 -82.5)"/><polygon class="cls-6" points="284.413 449.253 289.153 458.058 481.263 354.615 590.5 354.505 590.5 344.505 478.737 344.617 284.413 449.253"/><polygon class="cls-6" points="1003.479 535.5 1003.979 535.5 1003.979 409 1003.479 535.5"/><polygon class="cls-6" points="1014.021 399 911.264 399 811.269 345.003 600.5 344.512 600.5 354.512 808.731 354.997 908.736 409 1003.979 409 1013.981 409 1014.021 399"/><polygon class="cls-6" points="1119.5 525.5 1013.521 525.5 1013.981 409 1003.979 409 1003.979 535.5 1119.5 535.5 1119.5 525.5"/><rect class="cls-6" x="590.5" y="354.5134" width="10" height="117.9866"/><polygon class="cls-7" points="279.5 166.5 227.715 166.642 590.5 166.642 590.5 166.5 279.5 166.5"/><polygon class="cls-7" points="741.811 47 600.5 164.759 600.5 166.642 990.722 166.642 902.476 47 741.811 47"/><polygon class="cls-6" points="590.5 270 590.5 344.505 590.5 354.505 590.5 354.513 600.5 354.513 600.5 354.512 600.5 344.512 600.5 327.972 600.5 166.642 590.5 166.642 590.5 270"/><polygon class="cls-6" points="227.715 166.642 227.715 166.642 227.715 166.642 227.715 166.642"/><polygon class="cls-6" points="600.5 166.642 594.79 156.5 303.489 156.5 303.489 166.5 590.5 166.5 590.5 166.642 600.5 166.642"/><polygon class="cls-6" points="279.486 156.5 101 156.991 94.268 157.009 32.413 293.974 41.526 298.09 100.732 166.991 101 166.99 227.715 166.642 227.715 166.642 279.5 166.5 303.489 166.5 303.489 156.5 279.486 156.5"/><polygon class="cls-6" points="1003.146 166.642 907.524 37 738.19 37 594.79 156.5 600.5 166.642 600.5 164.759 741.811 47 902.476 47 990.722 166.642 1006.264 187.713 1011.735 178.287 1003.146 166.642"/><polygon class="cls-6" points="1205.313 253.266 1253.197 296.674 1259.913 289.266 1205.313 239.769 1156.172 195.22 1011.735 178.287 1006.264 187.713 1151.828 204.78 1205.313 253.266"/></g></svg>