<svg id="Layer_2" data-name="Layer 2" xmlns="http://www.w3.org/2000/svg" width="24" height="34" viewBox="0 0 24 34"><defs><style>.cls-1{fill:#fd8b55;}.cls-2{fill:#fff;}</style></defs><title>bathroom</title><path class="cls-1" d="M150,40.0264,150,40c-.1718,0-.333.0092-.5.0132-.1671-.004-.3283-.0132-.5-.0132l0,.0264C137.9747,40.57,137.5,50.1144,137.5,54c0,8,8,11,9,13a37.0132,37.0132,0,0,1,2.5,7h1a37.0132,37.0132,0,0,1,2.5-7c1-2,9-5,9-13C161.5,50.1144,161.026,40.57,150,40.0264Z" transform="translate(-137.5004 -40)"/><path class="cls-2" d="M146.8371,59.9853a.8187.8187,0,0,1,.05.6859.46.46,0,0,1-.4939.3258q-.3856.0012-.7713,0a.5.5,0,0,1-.5615-.4567.781.781,0,0,1,.1414-.62,5.5141,5.5141,0,0,1-4.3286-4.588h17.2318a5.5569,5.5569,0,0,1-1.3969,2.937,5.1912,5.1912,0,0,1-2.9219,1.6322.7823.7823,0,0,1,.1043.7955.45.45,0,0,1-.4734.3026c-.2438-.01-.4884-.0021-.7326-.0022a.562.562,0,0,1-.6215-.6835,2.9827,2.9827,0,0,1,.0846-.3284Z" transform="translate(-137.5004 -40)"/><path class="cls-2" d="M149.4989,54.5938h-8.7374a.6586.6586,0,0,1-.7267-.5209.8036.8036,0,0,1,.3392-.9334.817.817,0,0,1,.35-.0732q5.3429-.0059,10.6855-.0036,3.3947,0,6.7894,0a.6773.6773,0,0,1,.7448.4541.8282.8282,0,0,1-.2412.9506.7861.7861,0,0,1-.4087.1214c-2.2695.0073-4.5391.0052-6.8086.0053Z" transform="translate(-137.5004 -40)"/><path class="cls-2" d="M157.0334,52.4233h-.8985v-.307q0-2.6238,0-5.2476a.9615.9615,0,0,0-1.1765-.9425c-.0556.01-.1092.03-.1722.0484a1.5737,1.5737,0,0,1-.0058,1.5061.4873.4873,0,0,1-.8285.1486q-.8483-.7725-1.6624-1.5782c-.292-.2895-.214-.6032.1646-.783a1.812,1.812,0,0,1,1.5434-.0218.3645.3645,0,0,0,.26.0059,1.8774,1.8774,0,0,1,2.7857,1.5821c.0214,1.816.005,3.6324.0042,5.4487C157.0471,52.3244,157.0392,52.3658,157.0334,52.4233Z" transform="translate(-137.5004 -40)"/><path class="cls-2" d="M148.9327,48.9115a6.4631,6.4631,0,0,1-.4291.5508c-.0331.0351-.1983.0076-.2553-.041a.2575.2575,0,0,1-.0641-.2389,1.4615,1.4615,0,0,1,.2647-.42.329.329,0,0,1,.2694-.0591C148.792,48.7218,148.8436,48.82,148.9327,48.9115Z" transform="translate(-137.5004 -40)"/><path class="cls-2" d="M151.894,46.6319c-.0454.0374-.1144.1346-.2066.162-.1924.0572-.3691.2676-.598.0959a.2046.2046,0,0,1,.0144-.3449,2.2384,2.2384,0,0,1,.5231-.2109C151.7734,46.2959,151.8993,46.4239,151.894,46.6319Z" transform="translate(-137.5004 -40)"/><path class="cls-2" d="M152.1422,49.53a5.0376,5.0376,0,0,1,.33-.545.2758.2758,0,0,1,.2552-.0274c.07.04.1473.1672.1276.23a1.7434,1.7434,0,0,1-.2483.487.2894.2894,0,0,1-.2524.0547C152.2754,49.7047,152.2214,49.609,152.1422,49.53Z" transform="translate(-137.5004 -40)"/><path class="cls-2" d="M153.5969,48.0857c-.15.19-.279.3752-.4348.5372-.0341.0354-.1886.0167-.2411-.0271-.06-.05-.1156-.1776-.0878-.2331a2.1081,2.1081,0,0,1,.3256-.4677.2857.2857,0,0,1,.2451-.02C153.4735,47.903,153.5158,47.9926,153.5969,48.0857Z" transform="translate(-137.5004 -40)"/><path class="cls-2" d="M151.3211,48.0088c.2034.0029.3324.1891.2328.3361a1.7064,1.7064,0,0,1-.3507.384.3062.3062,0,0,1-.2758.0043c-.0651-.0417-.1294-.1946-.0982-.2411a3.5955,3.5955,0,0,1,.4022-.4579C151.2528,48.0118,151.3025,48.0136,151.3211,48.0088Z" transform="translate(-137.5004 -40)"/><path class="cls-2" d="M149.7326,47.9241a1.1817,1.1817,0,0,1-.1094.1909c-.0814.0935-.1722.18-.262.2667a.2436.2436,0,0,1-.3578.0206.208.208,0,0,1-.018-.3249,1.7213,1.7213,0,0,1,.3043-.3019.3817.3817,0,0,1,.28-.038C149.6357,47.7558,149.6763,47.8553,149.7326,47.9241Z" transform="translate(-137.5004 -40)"/><path class="cls-2" d="M150.1626,47.664c-.1081-.076-.2079-.1112-.2351-.1745a.2677.2677,0,0,1,.0172-.2468,1.85,1.85,0,0,1,.4471-.31.3038.3038,0,0,1,.2567.0521c.0524.0429.0913.19.06.2209C150.545,47.3668,150.3571,47.5052,150.1626,47.664Z" transform="translate(-137.5004 -40)"/><path class="cls-2" d="M150.523,48.9969c.1955.0189.307.1827.2334.3262a1.5573,1.5573,0,0,1-.2665.398.3238.3238,0,0,1-.2843.0576c-.0711-.0319-.1519-.1823-.1268-.2426a2.3727,2.3727,0,0,1,.3017-.48C150.4106,49.0154,150.4918,49.0089,150.523,48.9969Z" transform="translate(-137.5004 -40)"/><path class="cls-2" d="M152.3514,50.2754a3.3387,3.3387,0,0,1-.2391.535.3183.3183,0,0,1-.2805.0706.2627.2627,0,0,1-.1445-.22,1.6345,1.6345,0,0,1,.2059-.505.3055.3055,0,0,1,.2646-.0681C152.2352,50.1081,152.2886,50.21,152.3514,50.2754Z" transform="translate(-137.5004 -40)"/><path class="cls-2" d="M152.555,47.4252a.4159.4159,0,0,1-.08.1367,3.0023,3.0023,0,0,1-.3582.275.237.237,0,0,1-.3278-.0421.2052.2052,0,0,1,.015-.3119,2.4858,2.4858,0,0,1,.3737-.285A.2467.2467,0,0,1,152.555,47.4252Z" transform="translate(-137.5004 -40)"/><path class="cls-2" d="M150.1884,50.3152a3.8576,3.8576,0,0,1-.2763.5313.2943.2943,0,0,1-.2688.0375.271.271,0,0,1-.13-.2293,1.2884,1.2884,0,0,1,.193-.4487.3025.3025,0,0,1,.2582-.0867C150.0491,50.14,150.1108,50.2427,150.1884,50.3152Z" transform="translate(-137.5004 -40)"/><path class="cls-2" d="M151.8987,51.456c.007.2824-.13.496-.299.5a.2335.2335,0,0,1-.2481-.2454c.0364-.31.11-.4583.3074-.4537A.218.218,0,0,1,151.8987,51.456Z" transform="translate(-137.5004 -40)"/></svg>