<svg id="Layer_2" data-name="Layer 2" xmlns="http://www.w3.org/2000/svg" width="24" height="34" viewBox="0 0 24 34"><defs><style>.cls-1{fill:#3c80f0;}.cls-2{fill:#fff;}</style></defs><title>bedroom</title><path class="cls-1" d="M116.9813,59.0264l0-.0264c-.1718,0-.333.0092-.5.0132-.1671-.004-.3283-.0132-.5-.0132l0,.0264c-11.026.5432-11.5,10.088-11.5,13.9736,0,8,8,11,9,13a37.0132,37.0132,0,0,1,2.5,7h1a37.0132,37.0132,0,0,1,2.5-7c1-2,9-5,9-13C128.4817,69.1144,128.0073,59.57,116.9813,59.0264Z" transform="translate(-104.4817 -59)"/><path class="cls-2" d="M123.03,75.102H109.947v1.9407h-1.3082V76.886c0-3.41.0046-6.8193-.0052-10.229a.6677.6677,0,0,1,.8409-.6912.6449.6449,0,0,1,.468.65q.0018,2.2335.0007,4.4669V73.118h13.0815v-.1827c0-1.024-.0015-2.048.0009-3.072a.6455.6455,0,0,1,.4411-.62.6109.6109,0,0,1,.7215.2251.974.974,0,0,1,.135.48c.01,1.5553.0058,3.1107.0058,4.6661q0,1.1208,0,2.2417v.1888H123.03Z" transform="translate(-104.4817 -59)"/><path class="cls-2" d="M113.8737,72.4689V69.8778c.0495-.0043.0969-.012.1442-.012,1.92-.0006,3.8407-.0069,5.761.0016a2.6,2.6,0,0,1,2.5825,2.4085c.0029.06,0,.1205,0,.193Z" transform="translate(-104.4817 -59)"/><path class="cls-2" d="M110.6011,71.1662a1.3068,1.3068,0,1,1,1.3006,1.3131A1.2974,1.2974,0,0,1,110.6011,71.1662Z" transform="translate(-104.4817 -59)"/></svg>