<svg id="Layer_2" data-name="Layer 2" xmlns="http://www.w3.org/2000/svg" width="24" height="34" viewBox="0 0 24 34"><defs><style>.cls-1{fill:#7b9eb0;}.cls-2{fill:#fff;}</style></defs><title>hall</title><path class="cls-1" d="M146.286,140.5149l0-.0264c-.1718,0-.333.0092-.5.0132-.1671-.004-.3283-.0132-.5-.0132l0,.0264c-11.026.5432-11.5,10.088-11.5,13.9736,0,8,8,11,9,13a37.0132,37.0132,0,0,1,2.5,7h1a37.0132,37.0132,0,0,1,2.5-7c1-2,9-5,9-13C157.7864,150.6029,157.312,141.0581,146.286,140.5149Z" transform="translate(-133.7864 -140.4885)"/><path class="cls-2" d="M137.4771,161.59a8.7569,8.7569,0,0,1,.0159-1.1769.7638.7638,0,0,1,.3394-.4207q2.4221-1.6362,4.8624-3.2449a.6627.6627,0,0,0,.3409-.6361q-.02-2.803.0008-5.6063a.7.7,0,0,0-.36-.6758c-1.534-1.005-3.04-2.0534-4.5881-3.0357a1.0654,1.0654,0,0,1-.6157-1.1786,4.1767,4.1767,0,0,0,.004-.5872c.1963.1181.3424.1982.48.29,1.7836,1.1887,3.5609,2.3872,5.3551,3.56a1.7307,1.7307,0,0,0,.8562.2644c1.081.0306,2.1639.0288,3.2451.0007a1.6324,1.6324,0,0,0,.8118-.25c1.9275-1.2628,3.84-2.5482,5.7649-3.8317.27.896.1414,1.2749-.5865,1.7612-1.5114,1.01-3.02,2.0238-4.54,3.02a.6621.6621,0,0,0-.3408.636q.0194,2.8032-.0009,5.6064a.7.7,0,0,0,.36.6758c1.534,1.005,3.04,2.0534,4.5882,3.0357a1.0654,1.0654,0,0,1,.6157,1.1786,4.1585,4.1585,0,0,0-.0041.5872c-.1963-.1181-.3423-.1982-.4805-.29-1.7836-1.1887-3.5608-2.3872-5.3551-3.56a1.73,1.73,0,0,0-.8561-.2644c-1.0811-.0306-2.164-.0288-3.2452-.0007a1.6314,1.6314,0,0,0-.8117.25C141.4058,158.96,139.493,160.2456,137.4771,161.59Zm6.9257-11.0553v5.512h2.7444v-5.512Z" transform="translate(-133.7864 -140.4885)"/><path class="cls-2" d="M137.4957,156.1831v-6.4767c.4257.2332.8287.435,1.2073.6754a.5006.5006,0,0,1,.1383.37c.0094,1.4752.011,2.9506-.0027,4.4257a.5249.5249,0,0,1-.1961.3836C138.2885,155.7844,137.9077,155.9646,137.4957,156.1831Z" transform="translate(-133.7864 -140.4885)"/><path class="cls-2" d="M154.0579,156.1853c-.4333-.2332-.83-.4226-1.1957-.6593a.5611.5611,0,0,1-.1449-.4127c-.01-1.4424.002-2.885-.0135-4.3273a.4928.4928,0,0,1,.3279-.5218c.3357-.1575.6551-.35,1.0262-.5514Z" transform="translate(-133.7864 -140.4885)"/><path class="cls-2" d="M140.2831,151.2086c.4383.2334.8289.4257,1.1993.6511.0795.0484.1176.2157.1208.33.0132.4733-.01.9479.0117,1.4206a.4986.4986,0,0,1-.3361.5607c-.3242.1382-.6286.3224-.9957.5151Z" transform="translate(-133.7864 -140.4885)"/><path class="cls-2" d="M151.2657,154.6783c-.4024-.2087-.7578-.3715-1.0874-.576a.5911.5911,0,0,1-.2191-.371,3.6941,3.6941,0,0,1-.01-.6353c0-1.3276,0-1.3276,1.3162-1.837Z" transform="translate(-133.7864 -140.4885)"/></svg>