<svg id="Layer_2" data-name="Layer 2" xmlns="http://www.w3.org/2000/svg" width="24" height="34" viewBox="0 0 24 34"><defs><style>.cls-1{fill:#00ae4e;}.cls-2{fill:#fff;}</style></defs><title>dining</title><path class="cls-1" d="M149.711,78.0264l0-.0264c-.1718,0-.333.0092-.5.0132-.1671-.004-.3283-.0132-.5-.0132l0,.0264c-11.026.5432-11.5,10.088-11.5,13.9736,0,8,8,11,9,13a37.0132,37.0132,0,0,1,2.5,7h1a37.0132,37.0132,0,0,1,2.5-7c1-2,9-5,9-13C161.2114,88.1144,160.737,78.57,149.711,78.0264Z" transform="translate(-137.2114 -78)"/><path class="cls-2" d="M154.0763,98.8054a2.4867,2.4867,0,0,1-.18.4138.93.93,0,0,1-1.0515.4.9788.9788,0,0,1-.696-.9432q-.0032-2.4764-.0011-4.9527V90.7789c-.2862,0-.5563.0005-.8265,0-.0979,0-.1961.0015-.2936-.006a.2288.2288,0,0,1-.2261-.2331c-.0035-.0379-.0026-.0762-.0026-.1144,0-1.9723.016-3.9448-.006-5.9169a2.4987,2.4987,0,0,1,1.7944-2.427c.1147-.03.231-.0543.3465-.0813h.7837a.7463.7463,0,0,1,.3592.3923Z" transform="translate(-137.2114 -78)"/><path class="cls-2" d="M145.9237,93.4755q0-2.4679.0026-4.9358a.3012.3012,0,0,0-.1535-.2807c-.4267-.3168-.8361-.6576-1.244-.9989a.5665.5665,0,0,1-.1824-.4687c.0066-1.28.0023-2.5606.0042-3.8408a.4944.4944,0,0,1,.6246-.5289.5036.5036,0,0,1,.35.5116q.002,1.3891.0006,2.7784c0,.0872,0,.1744,0,.2615a.4946.4946,0,1,0,.9761-.0083q.001-1.4383,0-2.8765c0-.0709-.0016-.1418.0013-.2125a.4963.4963,0,0,1,.4519-.475.4879.4879,0,0,1,.5048.3964,1.2231,1.2231,0,0,1,.0166.2273c.001.9861-.0039,1.9722.0061,2.9582a.7245.7245,0,0,0,.1238.3885.408.408,0,0,0,.48.1514.4669.4669,0,0,0,.3528-.4052,1.6268,1.6268,0,0,0,.01-.2118c.0006-.9807.0027-1.9613-.0012-2.9419a.5272.5272,0,0,1,.2639-.5063.4822.4822,0,0,1,.6987.35,1.483,1.483,0,0,1,.0091.212c0,1.2639-.0021,2.5278.0032,3.7917a.6789.6789,0,0,1-.161.4644,4.8159,4.8159,0,0,1-1.0687.976.28.28,0,0,0-.15.2712q.0055,4.9359.0027,9.8717a.9917.9917,0,0,1-.7659,1.0359.9724.9724,0,0,1-1.1335-.7592,2.0088,2.0088,0,0,1-.0223-.3254Q145.9226,95.9108,145.9237,93.4755Z" transform="translate(-137.2114 -78)"/></svg>