<svg id="Layer_2" data-name="Layer 2" xmlns="http://www.w3.org/2000/svg" width="24" height="34" viewBox="0 0 24 34"><defs><style>.cls-1{fill:#1ba8ba;}.cls-2{fill:#fff;}</style></defs><title>living</title><path class="cls-1" d="M178.25,66.0264l0-.0264c-.1718,0-.333.0092-.5.0132-.1671-.004-.3283-.0132-.5-.0132l0,.0264c-11.026.5432-11.5,10.088-11.5,13.9736,0,8,8,11,9,13a37.0132,37.0132,0,0,1,2.5,7h1a37.0132,37.0132,0,0,1,2.5-7c1-2,9-5,9-13C189.75,76.1144,189.2758,66.57,178.25,66.0264Z" transform="translate(-165.7502 -66)"/><path class="cls-2" d="M171.9487,79.3186h11.7344c-.0255-.4562-.0188-.8928-.08-1.315a2.0778,2.0778,0,0,1,.9129-2.2618,1.45,1.45,0,0,1,1.9457.6839,2.3368,2.3368,0,0,1-.22,2.5744,1.3737,1.3737,0,0,0-.24.7192c-.0278.9143-.0032,1.8307-.0126,2.746-.0113,1.1016-.59,1.6727-1.4684,1.4794a2.6791,2.6791,0,0,0-.5735-.05q-6.1031-.0042-12.206.001a3.3556,3.3556,0,0,0-.6865.078c-.7625.1613-1.3919-.4241-1.4146-1.37-.022-.9147.0173-1.8323-.0209-2.7454a1.4342,1.4342,0,0,0-.3047-.7957,2.3583,2.3583,0,0,1-.4069-2.3769,1.5155,1.5155,0,0,1,1.724-1.0594,1.7985,1.7985,0,0,1,1.3119,1.7988C171.9721,78.03,171.9487,78.6388,171.9487,79.3186Z" transform="translate(-165.7502 -66)"/><path class="cls-2" d="M172.627,78.4432c.25-1.6286-.2308-2.7793-1.45-3.4028.1075-1.3876.6718-2.0353,1.7559-2.0367,3.219-.004,6.438.0008,9.6569-.0037a1.5543,1.5543,0,0,1,1.5619,1.0757c.2053.512.3284.9534-.2277,1.4062a2.844,2.844,0,0,0-.81,2.9613Z" transform="translate(-165.7502 -66)"/></svg>