<svg id="Layer_2" data-name="Layer 2" xmlns="http://www.w3.org/2000/svg" width="24" height="34" viewBox="0 0 24 34"><defs><style>.cls-1{fill:#ef74b7;}.cls-2{fill:#fff;}</style></defs><title>porch</title><path class="cls-1" d="M219.9968,74.0264l0-.0264c-.1717,0-.3329.0092-.5.0132-.167-.004-.3282-.0132-.5-.0132l0,.0264c-11.026.5432-11.5,10.088-11.5,13.9736,0,8,8,11,9,13a37.0132,37.0132,0,0,1,2.5,7h1a37.0132,37.0132,0,0,1,2.5-7c1-2,9-5,9-13C231.4971,84.1144,231.0228,74.57,219.9968,74.0264Z" transform="translate(-207.4971 -74)"/><path class="cls-2" d="M219.9524,88.073h-.9882c-.0067-.06-.0172-.1137-.0178-.1672q-.0617-5.1148-.1214-10.23c-.0029-.2485.0715-.3308.3165-.34.2026-.0077.406-.0077.6087,0,.2417.009.3211.0956.3186.3427q-.0192,1.8695-.0423,3.739-.0369,3.1928-.0739,6.3856C219.9516,87.8859,219.9524,87.9685,219.9524,88.073Z" transform="translate(-207.4971 -74)"/><path class="cls-2" d="M221.4706,88.071h-1.01c.0217-.4984.0415-.9853.0642-1.4721q.0953-2.0347.1922-4.0694.109-2.3495.2158-4.699.0174-.3758.37-.29c.2036.0493.4037.1133.6065.1663a.2983.2983,0,0,1,.2482.3529c-.055.768-.102,1.5364-.1544,2.3045q-.1165,1.7073-.2362,3.4143C221.6687,85.2023,221.57,86.6262,221.4706,88.071Z" transform="translate(-207.4971 -74)"/><path class="cls-2" d="M218.4288,88.0732h-.9941c-.0226-.2824-.0474-.5588-.0665-.8355q-.1776-2.5679-.3534-5.1359-.1364-1.96-.2793-3.9192c-.0262-.3595-.0047-.3993.3475-.5037q.2413-.0715.4859-.1319c.2575-.0635.3675.0158.382.287q.06,1.1227.1115,2.2459.144,3.0649.2855,6.13C218.3763,86.8242,218.4013,87.4385,218.4288,88.0732Z" transform="translate(-207.4971 -74)"/><path class="cls-2" d="M215.9139,88.0635c-.0819-.6377-.1613-1.2547-.24-1.8718q-.2643-2.0608-.5282-4.1218c-.1281-.9992-.2607-1.9979-.3782-2.9983a.3741.3741,0,0,1,.12-.2843,5.33,5.33,0,0,1,.6246-.4234.2494.2494,0,0,1,.4082.2028q.1925,1.7951.3783,3.5909.2221,2.1189.4437,4.238c.0575.5495.1135,1.0992.1722,1.6679Z" transform="translate(-207.4971 -74)"/><path class="cls-2" d="M222.97,88.0684c-.0562.0045-.1037.0114-.1512.0115-.2717.0011-.5435.0006-.8433.0006.0344-.3512.065-.6823.1-1.0129q.311-2.9752.6232-5.95c.0868-.8281.1711-1.6565.2605-2.4844.0354-.3274.2031-.4043.4872-.2277.1544.0959.2994.2077.4571.2975a.4143.4143,0,0,1,.2156.4721q-.3781,2.8714-.7432,5.7446-.1954,1.52-.388,3.04C222.9832,87.9925,222.977,88.0256,222.97,88.0684Z" transform="translate(-207.4971 -74)"/><path class="cls-2" d="M225.6754,85.3733v1.4539c0,.8266-.0235,1.6541.0074,2.48.025.6706.1125,1.3389.1774,2.0078q.13,1.3379.2686,2.6748c.0166.1606-.0539.2166-.2032.2141-.1961-.0033-.3923-.0041-.5884,0-.1377.0031-.2-.0516-.2128-.1943-.0769-.8225-.1614-1.6443-.2426-2.4664-.0447-.4529-.1008-.9051-.1285-1.359-.0386-.6353-.071-1.2717-.0781-1.9079-.0125-1.1-.004-2.2-.0031-3.2995,0-.2762.0733-.3513.3443-.3524q.7354-.0027,1.4711,0c.2493.0012.3217.0835.3232.3523.0015.3012-.0716.3922-.3289.3958S225.9646,85.3733,225.6754,85.3733Z" transform="translate(-207.4971 -74)"/><path class="cls-2" d="M213.3189,85.3738c-.2816,0-.5392.0029-.7967-.0008-.2631-.0038-.34-.0951-.3386-.3875.0016-.2817.0722-.3609.3367-.362q.7355-.0032,1.471.0008c.2485.0011.3312.08.3314.3228.0012,1.4779.0232,2.9564-.0092,4.4336-.0162.74-.1314,1.4776-.2046,2.216-.0786.7941-.1654,1.5874-.237,2.3822-.0156.173-.0827.2334-.2486.2258-.1817-.0083-.3642-.0047-.5463,0-.1616.0041-.227-.0594-.21-.2283.15-1.4764.308-2.9522.4366-4.43.0442-.5076.014-1.0219.0148-1.5331C213.32,87.1448,213.3189,86.2769,213.3189,85.3738Z" transform="translate(-207.4971 -74)"/><path class="cls-2" d="M224.3978,89.3361h-9.8022v-.98h9.8022Z" transform="translate(-207.4971 -74)"/><path class="cls-2" d="M214.3266,92.0448c.0059-.0808.009-.15.0163-.219.0174-.1657.0369-.3313.0564-.5054h10.1963l.0768.7244Z" transform="translate(-207.4971 -74)"/><path class="cls-2" d="M216.0855,89.6116h6.7227a7.2354,7.2354,0,0,1-.1066.7539c-.02.0829-.139.1521-.2265.2048-.047.0284-.123.01-.1859.01q-2.8251.0009-5.65.001c-.4032,0-.4422-.0338-.4926-.4263C216.1242,89.9829,216.1075,89.81,216.0855,89.6116Z" transform="translate(-207.4971 -74)"/></svg>